<?xml version="1.0" encoding="UTF-8"?>
<svg id="Capa_2" data-name="Capa 2" xmlns="http://www.w3.org/2000/svg" xmlns:xlink="http://www.w3.org/1999/xlink" viewBox="0 0 99.82 99.82">
  <defs>
    <style>
      .cls-1 {
        fill: #1d1d1b;
      }

      .cls-2 {
        fill: url(#Degradado_sin_nombre_23);
      }
    </style>
    <linearGradient id="Degradado_sin_nombre_23" data-name="Degradado sin nombre 23" x1="38.21" y1="91.17" x2="53.45" y2="10.69" gradientUnits="userSpaceOnUse">
      <stop offset="0" stop-color="#d9285a"/>
      <stop offset="1" stop-color="#f6a019"/>
    </linearGradient>
  </defs>
  <g id="Capa_3" data-name="Capa 3">
    <g>
      <path class="cls-2" d="M76.08,60.97c.33,.79,.64,1.58,.95,2.38,.09,.23,.35,.35,.58,.26,4.44-1.62,8.42-3.8,11.44-6.74,4.2-4.16,4.15-10.33,.44-14.61-9.6-10.91-29.62-13.66-43.37-13.77-.47,0-.96,.01-1.44,.02,4.15-5.47,8.81-10.49,14.27-14.5,12.99-9.14,13.96,3.85,12.43,13.99-.03,.22,.1,.43,.32,.49,.84,.24,1.68,.5,2.51,.77,.25,.08,.52-.07,.58-.32,.61-2.62,1.08-5.29,1.35-8,1.29-14.62-8.48-19.85-20.76-12.69-8.84,5.29-15.88,12.79-21.78,21.06-3.44,.43-6.95,1.06-10.38,1.93h-.02c-1.72-4.77-3.26-9.64-3.93-14.46-.41-3.15-.66-6.3,.43-9.1,2.09-4.69,8.9-.73,12.06,1.25,2.93,2.01,5.69,4.26,8.28,6.69,.18,.17,.45,.16,.62-.01,.66-.66,1.33-1.31,2.01-1.93,.18-.17,.19-.45,.02-.64-4.74-5.15-9.87-9.49-15.21-11.92C22.7-1.05,16.93-.17,14.25,4.8c-3.69,7.41-2.25,18.34,1.05,29.02-4.93,2.03-9.33,4.77-12.55,8.43-3.73,4.29-3.74,10.47,.44,14.61,2.65,2.58,6.04,4.58,9.84,6.13,.25,.1,.54-.04,.61-.3,.23-.85,.48-1.73,.75-2.62,.06-.21-.03-.43-.23-.53-7.92-4.02-14.36-10.61-2.82-16.68,2-1,4.07-1.84,6.19-2.56,1.3,3.45,2.73,6.79,4.17,9.87-5.04,11.45-8.77,24.95-5.82,35.88,1.84,6.29,7.48,9.46,13.74,7.4,4-1.41,7.84-3.96,11.46-7.15,.19-.17,.2-.46,.03-.65-.63-.7-1.25-1.4-1.87-2.11-.15-.18-.42-.21-.61-.07-7.94,5.94-18.4,10.24-17.06-4.75,.71-6.48,2.6-12.78,5.11-18.87,.16,.28,.32,.56,.47,.83,7.5,13.1,25.71,38.15,41.94,39.13,5.65,.18,9.3-4.42,9.81-9.62,1.36-14.25-7.64-33.08-14.89-46.36-.18-.33-.5-.56-.87-.64-.85-.17-1.71-.33-2.57-.47,0,0,0,0,0,0-4.79-.79-9.66-1.11-14.48-1.2-.98,0-1.97,.02-2.95,.05-.34,.01-.55,.38-.38,.68l2.76,5.05c.08,.14,.23,.23,.4,.23,.25,0,.5,0,.76-.01,5.6-.3,13.95-.31,15.93-.17,.24,.02,.45,.16,.57,.37,5.76,11.09,10.16,22.47,11.11,34.87,.09,3.45,.19,8.98-2.97,10.82-6.11,1.87-16.09-9.28-19.96-13.77-6.11-7.25-11.46-15.25-16.26-23.54-1.24-2.15-2.44-4.33-3.6-6.53,1.1-2.13,2.25-4.23,3.41-6.3,1.32-2.22,2.68-4.44,4.1-6.63,2.38-.13,4.76-.2,7.11-.23,11.79,.17,24.21,1.19,34.78,6.45,12.41,6.52,4.04,13.64-4.59,17.53-.22,.1-.32,.35-.23,.58Z"/>
    </g>
  </g>
</svg>